<?xml version="1.0" standalone="no"?>
<!DOCTYPE svg PUBLIC "-//W3C//DTD SVG 20010904//EN"
 "http://www.w3.org/TR/2001/REC-SVG-20010904/DTD/svg10.dtd">
<svg version="1.0" xmlns="http://www.w3.org/2000/svg"
 width="1024.000000pt" height="1024.000000pt" viewBox="0 0 1024.000000 1024.000000"
 preserveAspectRatio="xMidYMid meet">

<g transform="translate(0.000000,1024.000000) scale(0.100000,-0.100000)"
fill="#000000" stroke="none">
<path d="M4287 8523 c-4 -3 -7 -198 -7 -433 0 -326 -3 -430 -12 -441 -13 -15
-93 -69 -103 -69 -3 0 -36 -19 -73 -42 -36 -24 -74 -47 -84 -53 -9 -5 -59 -35
-110 -65 -51 -30 -147 -82 -212 -116 l-119 -63 -81 48 c-45 27 -141 84 -214
127 -73 44 -176 105 -230 137 -154 92 -175 100 -215 83 -43 -17 -62 -45 -144
-203 -68 -134 -91 -176 -153 -283 -43 -77 -129 -231 -149 -269 -7 -14 -41 -73
-74 -131 -33 -58 -94 -168 -135 -245 -104 -195 -126 -236 -154 -281 -24 -37
-44 -73 -199 -354 -92 -167 -109 -200 -109 -208 0 -4 29 -16 64 -25 56 -15
121 -17 509 -17 l444 0 6 -347 c9 -434 9 -708 0 -795 l-6 -68 -457 0 c-439 0
-459 -1 -504 -20 -37 -17 -46 -26 -46 -46 0 -20 181 -381 210 -419 4 -5 31
-55 60 -110 29 -55 59 -107 65 -115 7 -8 48 -85 92 -170 90 -177 312 -587 333
-615 9 -13 110 -201 180 -337 61 -118 149 -266 162 -274 15 -9 106 34 213 101
55 34 145 88 200 120 55 31 105 61 111 66 6 5 59 34 119 65 l108 56 36 -17
c20 -9 104 -56 186 -105 83 -48 188 -108 235 -134 47 -26 122 -70 168 -97 l82
-50 0 -440 0 -439 990 0 990 0 2 437 3 436 105 65 c58 35 128 77 155 92 45 25
81 47 208 122 20 13 61 38 90 57 28 18 72 43 96 54 43 20 45 20 75 3 17 -10
110 -63 206 -118 96 -55 192 -111 213 -124 21 -14 59 -37 85 -51 26 -14 78
-43 116 -66 80 -48 87 -46 131 35 17 31 38 64 47 74 9 11 51 88 92 172 42 83
96 185 119 225 24 39 58 101 75 137 18 36 38 74 45 84 52 84 79 132 117 206
24 47 54 102 67 124 14 21 33 57 43 80 20 43 76 146 155 286 111 195 158 280
206 375 29 55 65 119 81 143 35 51 31 70 -20 106 l-38 26 -467 0 -467 0 0 605
0 604 504 3 c277 2 507 6 511 10 4 4 0 19 -8 35 -8 15 -39 78 -68 138 -29 61
-62 126 -74 145 -27 43 -67 115 -111 198 -48 88 -58 105 -71 122 -6 8 -30 53
-54 100 -23 47 -57 108 -75 136 -18 27 -39 67 -47 87 -9 20 -43 83 -76 141
-33 57 -79 139 -102 183 -23 43 -46 83 -51 90 -5 6 -32 56 -59 110 -28 54 -56
105 -62 113 -15 19 -24 35 -93 167 -31 60 -64 116 -72 125 -8 10 -29 46 -48
80 -19 37 -39 62 -48 62 -20 -2 -261 -137 -416 -234 -69 -42 -171 -101 -228
-130 l-104 -53 -81 43 c-45 23 -104 57 -132 75 -27 18 -81 49 -120 70 -38 21
-83 49 -100 61 -16 12 -66 41 -110 65 -44 23 -82 45 -85 48 -3 4 -17 14 -32
24 l-28 17 0 434 c0 386 -2 435 -16 440 -21 8 -1949 8 -1957 -1z m1663 -633
l0 -329 53 -40 c28 -21 79 -54 112 -72 33 -17 81 -47 107 -65 26 -18 69 -44
97 -58 28 -14 65 -39 83 -55 18 -15 40 -31 48 -35 8 -3 5 -4 -7 -2 l-23 4 -2
-851 -3 -852 -130 -3 -131 -3 -22 46 c-45 93 -170 223 -287 297 -149 96 -273
141 -442 159 -295 31 -594 -74 -803 -283 -267 -267 -370 -686 -253 -1028 27
-81 78 -191 118 -255 14 -22 23 -44 22 -49 -2 -5 -19 -18 -39 -30 -20 -11
-103 -66 -184 -120 -298 -199 -372 -246 -382 -246 -6 0 -23 -10 -39 -23 -15
-13 -89 -61 -163 -107 -197 -121 -222 -137 -255 -160 -16 -11 -57 -38 -90 -59
-131 -84 -208 -133 -272 -174 -38 -24 -129 -81 -203 -127 -74 -46 -146 -92
-159 -102 -13 -10 -30 -18 -37 -18 -7 0 -28 28 -47 63 -73 133 -90 164 -117
212 -16 28 -48 88 -73 135 -59 114 -133 247 -195 350 -27 47 -48 88 -45 93 2
4 182 7 399 7 239 0 403 4 414 10 10 5 23 24 29 41 8 22 11 281 11 859 0 887
0 883 -49 910 -13 6 -149 10 -375 10 -195 0 -361 3 -369 6 -13 5 -11 15 13 67
16 33 50 95 75 138 25 42 45 79 45 82 0 3 13 28 28 54 29 49 118 213 157 290
12 23 27 48 32 55 6 7 34 58 63 112 29 55 62 116 73 135 11 20 31 56 45 81 14
25 34 61 46 82 11 20 40 69 63 110 24 40 43 81 43 91 0 9 4 17 9 17 5 0 57
-30 117 -66 176 -108 255 -154 319 -189 33 -18 80 -45 105 -59 25 -14 52 -26
60 -26 17 0 343 191 375 220 11 10 47 33 80 51 56 31 99 58 265 164 35 22 101
61 148 87 47 26 94 56 106 66 12 11 31 25 44 31 l22 12 0 328 c0 180 3 331 7
334 3 4 312 7 685 7 l678 0 0 -330z m1669 -705 c20 -39 61 -110 91 -160 29
-49 67 -117 85 -150 36 -67 71 -132 153 -280 31 -55 71 -129 90 -165 38 -73
103 -189 203 -362 53 -92 64 -118 52 -122 -8 -3 -180 -6 -381 -6 -273 -1 -371
-4 -383 -13 -40 -31 -40 -27 -38 -900 1 -905 1 -901 51 -911 13 -3 197 -7 410
-9 213 -1 390 -5 393 -9 3 -3 -13 -34 -35 -69 -22 -35 -51 -85 -65 -112 -14
-26 -76 -136 -139 -245 -62 -108 -139 -246 -171 -307 -32 -60 -69 -130 -83
-155 -13 -25 -45 -83 -70 -130 -25 -47 -61 -112 -82 -145 -20 -33 -48 -85 -63
-115 -15 -30 -37 -67 -49 -82 l-23 -27 -125 75 c-253 153 -428 246 -448 240
-33 -11 -274 -152 -316 -185 -21 -17 -42 -31 -47 -31 -4 0 -8 255 -8 568 -1
603 -9 1272 -17 1309 -9 48 -42 53 -333 53 -152 0 -281 -4 -295 -10 -15 -5
-39 -31 -54 -56 -68 -116 -204 -245 -319 -303 -98 -50 -167 -65 -288 -65 -135
0 -194 13 -310 72 -117 59 -252 190 -307 297 -70 135 -83 192 -83 355 1 131 3
152 28 222 35 101 127 237 211 311 76 67 193 125 305 152 136 33 315 9 455
-62 126 -62 203 -139 308 -304 36 -57 57 -80 80 -88 19 -7 129 -11 285 -11
333 0 330 -1 313 154 -5 45 -14 225 -20 401 -6 176 -15 374 -20 440 -11 133
-25 384 -41 720 -8 178 -13 223 -26 237 -28 31 6 20 72 -22 33 -21 83 -51 110
-66 28 -14 66 -39 85 -54 19 -15 51 -35 70 -45 19 -10 53 -30 75 -45 22 -15
51 -31 65 -35 14 -4 28 -12 31 -17 3 -5 16 0 30 10 13 11 83 54 154 97 72 42
144 86 160 96 124 80 221 138 228 136 5 -1 25 -34 46 -72z m-3899 -66 c0 -6
-4 -7 -10 -4 -5 3 -10 11 -10 16 0 6 5 7 10 4 6 -3 10 -11 10 -16z m2664
-2675 c3 -9 6 -88 6 -177 0 -89 4 -259 10 -377 5 -118 14 -402 20 -630 7 -228
15 -449 20 -490 5 -41 5 -76 2 -78 -4 -1 -46 -26 -93 -55 -48 -28 -157 -95
-243 -147 l-156 -94 0 -163 c0 -90 -2 -163 -6 -163 -3 0 -35 16 -72 36 -37 20
-114 61 -172 91 -58 31 -133 74 -168 96 -35 22 -76 47 -92 56 -49 27 -308 178
-425 248 -60 36 -175 104 -255 151 -80 47 -158 96 -175 108 -16 12 -61 38
-100 59 -38 21 -113 64 -165 95 -136 82 -469 277 -500 293 -8 4 -38 22 -67 40
-28 18 -82 50 -120 71 -37 21 -87 51 -111 67 l-42 27 49 36 c27 20 73 51 103
69 29 17 71 44 93 60 22 15 63 43 90 62 28 19 64 42 80 51 32 18 233 148 250
162 15 12 185 122 189 122 2 0 53 33 114 73 61 39 128 82 148 95 l37 23 26
-24 c77 -72 222 -151 359 -196 215 -72 427 -62 653 28 92 37 239 128 304 189
38 35 126 138 150 175 17 27 18 27 135 27 98 0 119 -3 124 -16z m-2926 -1150
c81 -43 199 -104 262 -137 63 -33 160 -83 215 -112 135 -72 174 -92 360 -183
88 -44 187 -94 220 -112 125 -68 426 -222 1163 -595 l272 -138 0 -138 0 -139
-682 2 -683 3 -5 334 -5 335 -90 54 c-49 30 -110 67 -135 83 -25 15 -103 62
-175 104 -130 76 -214 127 -355 216 -41 25 -104 63 -140 84 -36 20 -79 48 -97
61 -17 13 -38 24 -45 24 -7 0 -45 -20 -84 -44 -39 -24 -91 -54 -115 -66 -54
-27 -281 -163 -328 -196 -58 -41 -49 -52 -189 208 l-52 97 43 30 c23 16 78 52
122 80 44 27 98 63 120 79 22 16 47 32 55 35 8 3 49 28 90 56 41 27 83 50 93
50 11 1 85 -33 165 -75z"/>
</g>
</svg>
